<svg xmlns="http://www.w3.org/2000/svg" xmlns:xlink="http://www.w3.org/1999/xlink" width="500" zoomAndPan="magnify" viewBox="0 0 375 374.999991" height="500" preserveAspectRatio="xMidYMid meet" version="1.0"><defs><g/><clipPath id="ad3c0f15f1"><path d="M 58.296875 282.007812 L 320 282.007812 L 320 318.757812 L 58.296875 318.757812 Z M 58.296875 282.007812 " clip-rule="nonzero"/></clipPath><clipPath id="d9d1bc2787"><path d="M 321 293 L 326.796875 293 L 326.796875 299 L 321 299 Z M 321 293 " clip-rule="nonzero"/></clipPath></defs><g fill="#000000" fill-opacity="1"><g transform="translate(69.002052, 135.559743)"><g><path d="M 5.5 -75.703125 L 27.4375 -75.703125 C 37.957031 -75.703125 46.945312 -72.109375 54.40625 -64.921875 C 61.875 -57.734375 65.609375 -48.726562 65.609375 -37.90625 C 65.609375 -27.007812 61.890625 -17.96875 54.453125 -10.78125 C 47.023438 -3.59375 38.019531 0 27.4375 0 L 5.5 0 Z M 22.765625 -15.421875 L 25.421875 -15.421875 C 31.722656 -15.421875 36.875 -17.546875 40.875 -21.796875 C 44.882812 -26.046875 46.921875 -31.382812 46.984375 -37.8125 C 46.984375 -44.226562 44.976562 -49.578125 40.96875 -53.859375 C 36.96875 -58.148438 31.785156 -60.296875 25.421875 -60.296875 L 22.765625 -60.296875 Z M 22.765625 -15.421875 "/></g></g></g><g fill="#000000" fill-opacity="1"><g transform="translate(128.089097, 135.559743)"><g><path d="M 53.125 -21.296875 L 19 -21.296875 C 19 -17.984375 20.066406 -15.53125 22.203125 -13.9375 C 24.347656 -12.351562 26.675781 -11.5625 29.1875 -11.5625 C 31.8125 -11.5625 33.890625 -11.910156 35.421875 -12.609375 C 36.953125 -13.316406 38.695312 -14.710938 40.65625 -16.796875 L 52.390625 -10.921875 C 47.503906 -2.722656 39.367188 1.375 27.984375 1.375 C 20.890625 1.375 14.800781 -1.054688 9.71875 -5.921875 C 4.644531 -10.785156 2.109375 -16.640625 2.109375 -23.484375 C 2.109375 -30.335938 4.644531 -36.210938 9.71875 -41.109375 C 14.800781 -46.003906 20.890625 -48.453125 27.984375 -48.453125 C 35.453125 -48.453125 41.523438 -46.296875 46.203125 -41.984375 C 50.878906 -37.671875 53.21875 -31.503906 53.21875 -23.484375 C 53.21875 -22.390625 53.1875 -21.660156 53.125 -21.296875 Z M 19.453125 -30.28125 L 37.34375 -30.28125 C 36.976562 -32.726562 36.015625 -34.609375 34.453125 -35.921875 C 32.898438 -37.242188 30.898438 -37.90625 28.453125 -37.90625 C 25.753906 -37.90625 23.609375 -37.195312 22.015625 -35.78125 C 20.429688 -34.375 19.578125 -32.539062 19.453125 -30.28125 Z M 19.453125 -30.28125 "/></g></g></g><g fill="#000000" fill-opacity="1"><g transform="translate(174.789353, 135.559743)"><g><path d="M 17.4375 -47.078125 L 28.90625 -21.46875 L 40.375 -47.078125 L 59.640625 -47.078125 L 34.40625 0 L 23.40625 0 L -1.828125 -47.078125 Z M 17.4375 -47.078125 "/></g></g></g><g fill="#000000" fill-opacity="1"><g transform="translate(223.966963, 135.559743)"><g><path d="M 5.5 0 L 5.5 -47.078125 L 21.75 -47.078125 L 21.75 -40.28125 L 21.9375 -40.28125 C 22.050781 -40.53125 22.242188 -40.835938 22.515625 -41.203125 C 22.796875 -41.566406 23.394531 -42.207031 24.3125 -43.125 C 25.226562 -44.039062 26.207031 -44.863281 27.25 -45.59375 C 28.289062 -46.332031 29.632812 -46.992188 31.28125 -47.578125 C 32.9375 -48.160156 34.625 -48.453125 36.34375 -48.453125 C 38.113281 -48.453125 39.851562 -48.207031 41.5625 -47.71875 C 43.28125 -47.226562 44.535156 -46.738281 45.328125 -46.25 L 46.609375 -45.515625 L 39.828125 -31.75 C 37.804688 -33.46875 34.992188 -34.328125 31.390625 -34.328125 C 29.429688 -34.328125 27.742188 -33.894531 26.328125 -33.03125 C 24.921875 -32.175781 23.925781 -31.132812 23.34375 -29.90625 C 22.769531 -28.6875 22.359375 -27.648438 22.109375 -26.796875 C 21.867188 -25.941406 21.75 -25.269531 21.75 -24.78125 L 21.75 0 Z M 5.5 0 "/></g></g></g><g fill="#000000" fill-opacity="1"><g transform="translate(261.033056, 135.559743)"><g><path d="M 53.125 -21.296875 L 19 -21.296875 C 19 -17.984375 20.066406 -15.53125 22.203125 -13.9375 C 24.347656 -12.351562 26.675781 -11.5625 29.1875 -11.5625 C 31.8125 -11.5625 33.890625 -11.910156 35.421875 -12.609375 C 36.953125 -13.316406 38.695312 -14.710938 40.65625 -16.796875 L 52.390625 -10.921875 C 47.503906 -2.722656 39.367188 1.375 27.984375 1.375 C 20.890625 1.375 14.800781 -1.054688 9.71875 -5.921875 C 4.644531 -10.785156 2.109375 -16.640625 2.109375 -23.484375 C 2.109375 -30.335938 4.644531 -36.210938 9.71875 -41.109375 C 14.800781 -46.003906 20.890625 -48.453125 27.984375 -48.453125 C 35.453125 -48.453125 41.523438 -46.296875 46.203125 -41.984375 C 50.878906 -37.671875 53.21875 -31.503906 53.21875 -23.484375 C 53.21875 -22.390625 53.1875 -21.660156 53.125 -21.296875 Z M 19.453125 -30.28125 L 37.34375 -30.28125 C 36.976562 -32.726562 36.015625 -34.609375 34.453125 -35.921875 C 32.898438 -37.242188 30.898438 -37.90625 28.453125 -37.90625 C 25.753906 -37.90625 23.609375 -37.195312 22.015625 -35.78125 C 20.429688 -34.375 19.578125 -32.539062 19.453125 -30.28125 Z M 19.453125 -30.28125 "/></g></g></g><g fill="#000000" fill-opacity="1"><g transform="translate(50.647069, 263.246582)"><g><path d="M 68.09375 0 L 64.515625 -44.875 L 64.046875 -44.875 L 48.546875 -0.453125 L 38.265625 -0.453125 L 22.765625 -44.875 L 22.296875 -44.875 L 18.71875 0 L 1.46875 0 L 8.265625 -75.703125 L 26.609375 -75.703125 L 43.40625 -32.03125 L 60.203125 -75.703125 L 78.546875 -75.703125 L 85.34375 0 Z M 68.09375 0 "/></g></g></g><g fill="#000000" fill-opacity="1"><g transform="translate(128.818946, 263.246582)"><g><path d="M 53.125 -21.296875 L 19 -21.296875 C 19 -17.984375 20.066406 -15.53125 22.203125 -13.9375 C 24.347656 -12.351562 26.675781 -11.5625 29.1875 -11.5625 C 31.8125 -11.5625 33.890625 -11.910156 35.421875 -12.609375 C 36.953125 -13.316406 38.695312 -14.710938 40.65625 -16.796875 L 52.390625 -10.921875 C 47.503906 -2.722656 39.367188 1.375 27.984375 1.375 C 20.890625 1.375 14.800781 -1.054688 9.71875 -5.921875 C 4.644531 -10.785156 2.109375 -16.640625 2.109375 -23.484375 C 2.109375 -30.335938 4.644531 -36.210938 9.71875 -41.109375 C 14.800781 -46.003906 20.890625 -48.453125 27.984375 -48.453125 C 35.453125 -48.453125 41.523438 -46.296875 46.203125 -41.984375 C 50.878906 -37.671875 53.21875 -31.503906 53.21875 -23.484375 C 53.21875 -22.390625 53.1875 -21.660156 53.125 -21.296875 Z M 19.453125 -30.28125 L 37.34375 -30.28125 C 36.976562 -32.726562 36.015625 -34.609375 34.453125 -35.921875 C 32.898438 -37.242188 30.898438 -37.90625 28.453125 -37.90625 C 25.753906 -37.90625 23.609375 -37.195312 22.015625 -35.78125 C 20.429688 -34.375 19.578125 -32.539062 19.453125 -30.28125 Z M 19.453125 -30.28125 "/></g></g></g><g fill="#000000" fill-opacity="1"><g transform="translate(175.519203, 263.246582)"><g><path d="M 8.71875 -5.828125 C 4.3125 -10.628906 2.109375 -16.515625 2.109375 -23.484375 C 2.109375 -30.460938 4.3125 -36.367188 8.71875 -41.203125 C 13.125 -46.035156 18.722656 -48.453125 25.515625 -48.453125 C 31.753906 -48.453125 36.890625 -46.492188 40.921875 -42.578125 L 40.921875 -78.921875 L 57.171875 -78.921875 L 57.171875 0 L 41.109375 0 L 41.109375 -5.328125 L 40.921875 -5.328125 C 36.890625 -0.859375 31.753906 1.375 25.515625 1.375 C 18.722656 1.375 13.125 -1.023438 8.71875 -5.828125 Z M 22.515625 -31.46875 C 20.410156 -29.394531 19.359375 -26.734375 19.359375 -23.484375 C 19.359375 -20.242188 20.367188 -17.597656 22.390625 -15.546875 C 24.410156 -13.503906 27.070312 -12.484375 30.375 -12.484375 C 33.550781 -12.484375 36.164062 -13.519531 38.21875 -15.59375 C 40.269531 -17.675781 41.296875 -20.304688 41.296875 -23.484375 C 41.296875 -26.734375 40.238281 -29.394531 38.125 -31.46875 C 36.019531 -33.550781 33.4375 -34.59375 30.375 -34.59375 C 27.25 -34.59375 24.628906 -33.550781 22.515625 -31.46875 Z M 22.515625 -31.46875 "/></g></g></g><g fill="#000000" fill-opacity="1"><g transform="translate(229.559793, 263.246582)"><g><path d="M 7.0625 -73.3125 C 8.957031 -75.21875 11.21875 -76.171875 13.84375 -76.171875 C 16.476562 -76.171875 18.742188 -75.21875 20.640625 -73.3125 C 22.535156 -71.414062 23.484375 -69.148438 23.484375 -66.515625 C 23.484375 -63.890625 22.535156 -61.628906 20.640625 -59.734375 C 18.742188 -57.835938 16.476562 -56.890625 13.84375 -56.890625 C 11.21875 -56.890625 8.957031 -57.835938 7.0625 -59.734375 C 5.164062 -61.628906 4.21875 -63.890625 4.21875 -66.515625 C 4.21875 -69.148438 5.164062 -71.414062 7.0625 -73.3125 Z M 5.5 -47.078125 L 5.5 0 L 21.75 0 L 21.75 -47.078125 Z M 5.5 -47.078125 "/></g></g></g><g fill="#000000" fill-opacity="1"><g transform="translate(248.642105, 263.246582)"><g><path d="M 8.71875 -5.828125 C 4.3125 -10.628906 2.109375 -16.515625 2.109375 -23.484375 C 2.109375 -30.460938 4.3125 -36.367188 8.71875 -41.203125 C 13.125 -46.035156 18.722656 -48.453125 25.515625 -48.453125 C 31.753906 -48.453125 36.890625 -46.492188 40.921875 -42.578125 L 40.921875 -47.078125 L 57.171875 -47.078125 L 57.171875 0 L 41.109375 0 L 41.109375 -5.328125 L 40.921875 -5.328125 C 36.890625 -0.859375 31.753906 1.375 25.515625 1.375 C 18.722656 1.375 13.125 -1.023438 8.71875 -5.828125 Z M 22.515625 -31.46875 C 20.410156 -29.394531 19.359375 -26.734375 19.359375 -23.484375 C 19.359375 -20.242188 20.367188 -17.597656 22.390625 -15.546875 C 24.410156 -13.503906 27.070312 -12.484375 30.375 -12.484375 C 33.550781 -12.484375 36.164062 -13.519531 38.21875 -15.59375 C 40.269531 -17.675781 41.296875 -20.304688 41.296875 -23.484375 C 41.296875 -26.734375 40.238281 -29.394531 38.125 -31.46875 C 36.019531 -33.550781 33.4375 -34.59375 30.375 -34.59375 C 27.25 -34.59375 24.628906 -33.550781 22.515625 -31.46875 Z M 22.515625 -31.46875 "/></g></g></g><g fill="#000000" fill-opacity="1"><g transform="translate(302.682675, 263.246582)"><g><path d="M 15.96875 -19.640625 C 18.90625 -19.640625 21.394531 -18.613281 23.4375 -16.5625 C 25.488281 -14.507812 26.515625 -12.015625 26.515625 -9.078125 C 26.515625 -6.203125 25.488281 -3.738281 23.4375 -1.6875 C 21.394531 0.351562 18.90625 1.375 15.96875 1.375 C 13.09375 1.375 10.628906 0.351562 8.578125 -1.6875 C 6.523438 -3.738281 5.5 -6.203125 5.5 -9.078125 C 5.5 -12.015625 6.523438 -14.507812 8.578125 -16.5625 C 10.628906 -18.613281 13.09375 -19.640625 15.96875 -19.640625 Z M 15.96875 -19.640625 "/></g></g></g><g clip-path="url(#ad3c0f15f1)"><path fill="#040707" d="M 297.523438 283.480469 C 293.886719 283.574219 290.25 283.617188 286.613281 283.769531 C 282.6875 283.933594 278.761719 284.164062 274.839844 284.433594 C 271.625 284.65625 268.417969 284.984375 265.207031 285.257812 C 262.289062 285.503906 259.367188 285.707031 256.453125 285.976562 C 253.871094 286.21875 251.296875 286.53125 248.71875 286.800781 C 246.324219 287.046875 243.925781 287.261719 241.53125 287.519531 C 239.285156 287.765625 237.046875 288.054688 234.800781 288.316406 C 232.632812 288.574219 230.460938 288.8125 228.292969 289.078125 C 225.792969 289.382812 223.296875 289.707031 220.796875 290.027344 C 218.742188 290.292969 216.683594 290.554688 214.628906 290.839844 C 211.144531 291.320312 207.664062 291.8125 204.179688 292.304688 C 201.355469 292.703125 198.535156 293.09375 195.710938 293.507812 C 192.527344 293.976562 189.339844 294.457031 186.15625 294.945312 C 182.570312 295.496094 178.984375 296.050781 175.402344 296.625 C 172.148438 297.144531 168.898438 297.683594 165.648438 298.234375 C 161.484375 298.9375 157.324219 299.644531 153.167969 300.378906 C 147.554688 301.371094 141.941406 302.378906 136.332031 303.40625 C 131.011719 304.378906 125.6875 305.324219 120.386719 306.378906 C 111.453125 308.15625 102.519531 309.945312 93.609375 311.851562 C 86.21875 313.429688 78.875 315.21875 71.496094 316.851562 C 68.351562 317.546875 65.171875 318.101562 62 318.671875 C 61.476562 318.765625 60.875 318.714844 60.367188 318.550781 C 59.328125 318.21875 58.699219 317.441406 58.589844 316.355469 C 58.480469 315.304688 58.929688 314.457031 59.84375 313.9375 C 60.417969 313.609375 61.050781 313.351562 61.6875 313.167969 C 66.703125 311.710938 71.726562 310.273438 76.753906 308.84375 C 77.9375 308.507812 78.980469 308.789062 79.714844 309.808594 C 80.007812 310.21875 80.308594 310.253906 80.753906 310.171875 C 88.261719 308.808594 95.773438 307.464844 103.28125 306.105469 C 110.351562 304.828125 117.417969 303.53125 124.488281 302.257812 C 130.175781 301.238281 135.863281 300.226562 141.554688 299.246094 C 145.789062 298.519531 150.03125 297.851562 154.273438 297.160156 C 158.21875 296.515625 162.164062 295.855469 166.113281 295.242188 C 170.285156 294.59375 174.464844 294 178.640625 293.375 C 182.890625 292.742188 187.132812 292.085938 191.386719 291.472656 C 194.355469 291.046875 197.332031 290.683594 200.304688 290.285156 C 203.425781 289.867188 206.539062 289.425781 209.660156 289.023438 C 212.304688 288.679688 214.957031 288.386719 217.601562 288.0625 C 220.359375 287.726562 223.113281 287.363281 225.871094 287.039062 C 228.113281 286.773438 230.363281 286.546875 232.609375 286.300781 C 235.003906 286.035156 237.394531 285.761719 239.789062 285.507812 C 241.59375 285.316406 243.402344 285.144531 245.207031 284.96875 C 247.308594 284.765625 249.410156 284.558594 251.511719 284.367188 C 253.503906 284.183594 255.5 284.023438 257.492188 283.855469 C 259.820312 283.660156 262.144531 283.457031 264.472656 283.273438 C 265.800781 283.167969 267.132812 283.074219 268.464844 283 C 270.207031 282.902344 271.949219 282.832031 273.691406 282.742188 C 277.46875 282.546875 281.242188 282.304688 285.023438 282.160156 C 287.621094 282.058594 290.222656 282.074219 292.820312 282.066406 C 296.015625 282.058594 299.210938 282.019531 302.402344 282.105469 C 306.515625 282.21875 310.625 282.476562 314.644531 283.4375 C 315.714844 283.691406 316.757812 284.128906 317.734375 284.636719 C 318.253906 284.90625 318.648438 285.472656 319.007812 285.96875 C 319.296875 286.363281 319.261719 286.851562 318.789062 287.125 C 318.269531 287.421875 317.960938 287.101562 317.757812 286.640625 C 317.40625 285.847656 316.6875 285.503906 315.9375 285.308594 C 314.328125 284.890625 312.714844 284.417969 311.070312 284.222656 C 306.578125 283.6875 302.054688 283.46875 297.523438 283.480469 Z M 297.523438 283.480469 " fill-opacity="1" fill-rule="nonzero"/></g><g clip-path="url(#d9d1bc2787)"><path fill="#040707" d="M 326.617188 295.699219 C 326.601562 297.0625 325.472656 298.160156 324.109375 298.136719 C 322.746094 298.113281 321.652344 296.976562 321.6875 295.617188 C 321.722656 294.335938 322.859375 293.222656 324.140625 293.214844 C 325.484375 293.210938 326.628906 294.359375 326.617188 295.699219 Z M 326.617188 295.699219 " fill-opacity="1" fill-rule="nonzero"/></g><g fill="#000000" fill-opacity="1"><g transform="translate(114.924906, 170.4547)"><g><path d="M 0.53125 -1.0625 C 0.445312 -1.175781 0.40625 -1.289062 0.40625 -1.40625 C 0.40625 -1.582031 0.5 -1.726562 0.6875 -1.84375 C 0.769531 -1.90625 0.867188 -1.9375 0.984375 -1.9375 C 1.140625 -1.9375 1.28125 -1.875 1.40625 -1.75 C 1.664062 -1.457031 1.941406 -1.234375 2.234375 -1.078125 C 2.535156 -0.929688 2.894531 -0.859375 3.3125 -0.859375 C 3.632812 -0.867188 3.921875 -0.945312 4.171875 -1.09375 C 4.421875 -1.238281 4.546875 -1.46875 4.546875 -1.78125 C 4.546875 -2.070312 4.421875 -2.296875 4.171875 -2.453125 C 3.921875 -2.609375 3.546875 -2.753906 3.046875 -2.890625 C 2.566406 -3.015625 2.164062 -3.144531 1.84375 -3.28125 C 1.53125 -3.425781 1.265625 -3.632812 1.046875 -3.90625 C 0.828125 -4.1875 0.71875 -4.546875 0.71875 -4.984375 C 0.71875 -5.367188 0.828125 -5.707031 1.046875 -6 C 1.265625 -6.289062 1.554688 -6.519531 1.921875 -6.6875 C 2.285156 -6.851562 2.6875 -6.9375 3.125 -6.9375 C 3.53125 -6.9375 3.9375 -6.859375 4.34375 -6.703125 C 4.757812 -6.546875 5.097656 -6.304688 5.359375 -5.984375 C 5.460938 -5.867188 5.515625 -5.742188 5.515625 -5.609375 C 5.515625 -5.472656 5.441406 -5.34375 5.296875 -5.21875 C 5.210938 -5.132812 5.109375 -5.09375 4.984375 -5.09375 C 4.828125 -5.09375 4.703125 -5.144531 4.609375 -5.25 C 4.421875 -5.457031 4.195312 -5.617188 3.9375 -5.734375 C 3.675781 -5.847656 3.382812 -5.90625 3.0625 -5.90625 C 2.738281 -5.90625 2.460938 -5.835938 2.234375 -5.703125 C 2.003906 -5.566406 1.890625 -5.335938 1.890625 -5.015625 C 1.898438 -4.710938 2.03125 -4.488281 2.28125 -4.34375 C 2.539062 -4.195312 2.929688 -4.054688 3.453125 -3.921875 C 3.910156 -3.796875 4.289062 -3.664062 4.59375 -3.53125 C 4.894531 -3.394531 5.148438 -3.191406 5.359375 -2.921875 C 5.566406 -2.648438 5.671875 -2.289062 5.671875 -1.84375 C 5.671875 -1.4375 5.550781 -1.082031 5.3125 -0.78125 C 5.082031 -0.488281 4.78125 -0.265625 4.40625 -0.109375 C 4.03125 0.046875 3.628906 0.125 3.203125 0.125 C 2.660156 0.125 2.160156 0.03125 1.703125 -0.15625 C 1.242188 -0.34375 0.851562 -0.644531 0.53125 -1.0625 Z M 0.53125 -1.0625 "/></g></g></g><g fill="#000000" fill-opacity="1"><g transform="translate(121.86163, 170.4547)"><g><path d="M 7.328125 -3.390625 C 7.328125 -2.710938 7.175781 -2.109375 6.875 -1.578125 C 6.582031 -1.046875 6.171875 -0.628906 5.640625 -0.328125 C 5.117188 -0.0234375 4.546875 0.125 3.921875 0.125 C 3.285156 0.125 2.707031 -0.0234375 2.1875 -0.328125 C 1.664062 -0.628906 1.253906 -1.046875 0.953125 -1.578125 C 0.648438 -2.109375 0.5 -2.710938 0.5 -3.390625 C 0.5 -4.066406 0.648438 -4.675781 0.953125 -5.21875 C 1.253906 -5.757812 1.664062 -6.179688 2.1875 -6.484375 C 2.707031 -6.785156 3.285156 -6.9375 3.921875 -6.9375 C 4.546875 -6.9375 5.117188 -6.785156 5.640625 -6.484375 C 6.171875 -6.179688 6.582031 -5.757812 6.875 -5.21875 C 7.175781 -4.675781 7.328125 -4.066406 7.328125 -3.390625 Z M 6.109375 -3.390625 C 6.109375 -3.859375 6.007812 -4.273438 5.8125 -4.640625 C 5.625 -5.003906 5.363281 -5.285156 5.03125 -5.484375 C 4.695312 -5.691406 4.328125 -5.796875 3.921875 -5.796875 C 3.515625 -5.796875 3.144531 -5.691406 2.8125 -5.484375 C 2.476562 -5.285156 2.210938 -5.003906 2.015625 -4.640625 C 1.828125 -4.273438 1.734375 -3.859375 1.734375 -3.390625 C 1.734375 -2.929688 1.828125 -2.519531 2.015625 -2.15625 C 2.210938 -1.800781 2.476562 -1.519531 2.8125 -1.3125 C 3.144531 -1.113281 3.515625 -1.015625 3.921875 -1.015625 C 4.328125 -1.015625 4.695312 -1.113281 5.03125 -1.3125 C 5.363281 -1.519531 5.625 -1.800781 5.8125 -2.15625 C 6.007812 -2.519531 6.109375 -2.929688 6.109375 -3.390625 Z M 6.109375 -3.390625 "/></g></g></g><g fill="#000000" fill-opacity="1"><g transform="translate(130.464498, 170.4547)"><g><path d="M 3.875 -6.9375 C 4.550781 -6.9375 5.113281 -6.828125 5.5625 -6.609375 C 6.019531 -6.390625 6.25 -6.113281 6.25 -5.78125 C 6.25 -5.632812 6.203125 -5.503906 6.109375 -5.390625 C 6.015625 -5.273438 5.894531 -5.21875 5.75 -5.21875 C 5.632812 -5.21875 5.539062 -5.234375 5.46875 -5.265625 C 5.40625 -5.296875 5.320312 -5.351562 5.21875 -5.4375 C 5.164062 -5.488281 5.082031 -5.546875 4.96875 -5.609375 C 4.863281 -5.660156 4.71875 -5.703125 4.53125 -5.734375 C 4.34375 -5.773438 4.171875 -5.796875 4.015625 -5.796875 C 3.566406 -5.796875 3.164062 -5.691406 2.8125 -5.484375 C 2.46875 -5.273438 2.203125 -4.988281 2.015625 -4.625 C 1.828125 -4.257812 1.734375 -3.851562 1.734375 -3.40625 C 1.734375 -2.945312 1.828125 -2.535156 2.015625 -2.171875 C 2.203125 -1.804688 2.460938 -1.519531 2.796875 -1.3125 C 3.128906 -1.113281 3.515625 -1.015625 3.953125 -1.015625 C 4.398438 -1.015625 4.757812 -1.082031 5.03125 -1.21875 C 5.09375 -1.25 5.175781 -1.304688 5.28125 -1.390625 C 5.363281 -1.453125 5.4375 -1.5 5.5 -1.53125 C 5.570312 -1.570312 5.65625 -1.59375 5.75 -1.59375 C 5.914062 -1.59375 6.046875 -1.535156 6.140625 -1.421875 C 6.242188 -1.316406 6.296875 -1.179688 6.296875 -1.015625 C 6.296875 -0.828125 6.179688 -0.644531 5.953125 -0.46875 C 5.722656 -0.289062 5.414062 -0.144531 5.03125 -0.03125 C 4.65625 0.0703125 4.242188 0.125 3.796875 0.125 C 3.148438 0.125 2.570312 -0.0234375 2.0625 -0.328125 C 1.5625 -0.640625 1.175781 -1.0625 0.90625 -1.59375 C 0.632812 -2.132812 0.5 -2.738281 0.5 -3.40625 C 0.5 -4.070312 0.640625 -4.671875 0.921875 -5.203125 C 1.210938 -5.742188 1.613281 -6.164062 2.125 -6.46875 C 2.632812 -6.78125 3.21875 -6.9375 3.875 -6.9375 Z M 3.875 -6.9375 "/></g></g></g><g fill="#000000" fill-opacity="1"><g transform="translate(137.87912, 170.4547)"><g><path d="M 2.078125 -0.625 C 2.078125 -0.445312 2.019531 -0.296875 1.90625 -0.171875 C 1.789062 -0.0546875 1.644531 0 1.46875 0 C 1.289062 0 1.144531 -0.0546875 1.03125 -0.171875 C 0.914062 -0.296875 0.859375 -0.445312 0.859375 -0.625 L 0.859375 -6.21875 C 0.859375 -6.394531 0.914062 -6.539062 1.03125 -6.65625 C 1.144531 -6.78125 1.289062 -6.84375 1.46875 -6.84375 C 1.644531 -6.84375 1.789062 -6.78125 1.90625 -6.65625 C 2.019531 -6.539062 2.078125 -6.394531 2.078125 -6.21875 Z M 1.46875 -7.703125 C 1.21875 -7.703125 1.035156 -7.742188 0.921875 -7.828125 C 0.816406 -7.921875 0.765625 -8.066406 0.765625 -8.265625 L 0.765625 -8.46875 C 0.765625 -8.675781 0.820312 -8.820312 0.9375 -8.90625 C 1.0625 -9 1.242188 -9.046875 1.484375 -9.046875 C 1.722656 -9.046875 1.894531 -9 2 -8.90625 C 2.113281 -8.8125 2.171875 -8.664062 2.171875 -8.46875 L 2.171875 -8.265625 C 2.171875 -8.054688 2.113281 -7.910156 2 -7.828125 C 1.882812 -7.742188 1.707031 -7.703125 1.46875 -7.703125 Z M 1.46875 -7.703125 "/></g></g></g><g fill="#000000" fill-opacity="1"><g transform="translate(141.5869, 170.4547)"><g><path d="M 6.421875 -6.875 C 6.597656 -6.875 6.742188 -6.8125 6.859375 -6.6875 C 6.972656 -6.570312 7.03125 -6.421875 7.03125 -6.234375 L 7.03125 -0.625 C 7.03125 -0.445312 6.972656 -0.296875 6.859375 -0.171875 C 6.742188 -0.0546875 6.597656 0 6.421875 0 C 6.234375 0 6.082031 -0.0546875 5.96875 -0.171875 C 5.863281 -0.285156 5.8125 -0.4375 5.8125 -0.625 L 5.8125 -0.953125 C 5.582031 -0.648438 5.273438 -0.394531 4.890625 -0.1875 C 4.503906 0.0195312 4.085938 0.125 3.640625 0.125 C 3.046875 0.125 2.507812 -0.0234375 2.03125 -0.328125 C 1.550781 -0.628906 1.175781 -1.046875 0.90625 -1.578125 C 0.632812 -2.117188 0.5 -2.726562 0.5 -3.40625 C 0.5 -4.070312 0.632812 -4.675781 0.90625 -5.21875 C 1.175781 -5.757812 1.550781 -6.179688 2.03125 -6.484375 C 2.507812 -6.785156 3.03125 -6.9375 3.59375 -6.9375 C 4.050781 -6.9375 4.472656 -6.835938 4.859375 -6.640625 C 5.253906 -6.453125 5.570312 -6.210938 5.8125 -5.921875 L 5.8125 -6.234375 C 5.8125 -6.410156 5.863281 -6.5625 5.96875 -6.6875 C 6.082031 -6.8125 6.234375 -6.875 6.421875 -6.875 Z M 3.78125 -1.015625 C 4.1875 -1.015625 4.546875 -1.113281 4.859375 -1.3125 C 5.171875 -1.519531 5.414062 -1.804688 5.59375 -2.171875 C 5.769531 -2.535156 5.859375 -2.945312 5.859375 -3.40625 C 5.859375 -3.851562 5.769531 -4.253906 5.59375 -4.609375 C 5.414062 -4.972656 5.171875 -5.257812 4.859375 -5.46875 C 4.546875 -5.6875 4.1875 -5.796875 3.78125 -5.796875 C 3.375 -5.796875 3.007812 -5.691406 2.6875 -5.484375 C 2.375 -5.273438 2.128906 -4.988281 1.953125 -4.625 C 1.773438 -4.269531 1.6875 -3.863281 1.6875 -3.40625 C 1.6875 -2.945312 1.773438 -2.535156 1.953125 -2.171875 C 2.128906 -1.804688 2.375 -1.519531 2.6875 -1.3125 C 3.007812 -1.113281 3.375 -1.015625 3.78125 -1.015625 Z M 3.78125 -1.015625 "/></g></g></g><g fill="#000000" fill-opacity="1"><g transform="translate(150.293092, 170.4547)"><g><path d="M 2.25 -0.625 C 2.25 -0.445312 2.1875 -0.296875 2.0625 -0.171875 C 1.945312 -0.0546875 1.800781 0 1.625 0 C 1.457031 0 1.3125 -0.0546875 1.1875 -0.171875 C 1.070312 -0.296875 1.015625 -0.445312 1.015625 -0.625 L 1.015625 -8.953125 C 1.015625 -9.128906 1.078125 -9.273438 1.203125 -9.390625 C 1.328125 -9.515625 1.472656 -9.578125 1.640625 -9.578125 C 1.816406 -9.578125 1.960938 -9.515625 2.078125 -9.390625 C 2.191406 -9.273438 2.25 -9.128906 2.25 -8.953125 Z M 2.25 -0.625 "/></g></g></g><g fill="#000000" fill-opacity="1"><g transform="translate(154.336685, 170.4547)"><g/></g></g><g fill="#000000" fill-opacity="1"><g transform="translate(158.69025, 170.4547)"><g><path d="M 6.875 -3.640625 C 6.863281 -3.492188 6.796875 -3.363281 6.671875 -3.25 C 6.554688 -3.144531 6.414062 -3.09375 6.25 -3.09375 L 1.6875 -3.09375 C 1.75 -2.457031 1.988281 -1.953125 2.40625 -1.578125 C 2.832031 -1.203125 3.347656 -1.015625 3.953125 -1.015625 C 4.359375 -1.015625 4.691406 -1.070312 4.953125 -1.1875 C 5.210938 -1.3125 5.441406 -1.46875 5.640625 -1.65625 C 5.765625 -1.726562 5.890625 -1.765625 6.015625 -1.765625 C 6.160156 -1.765625 6.28125 -1.710938 6.375 -1.609375 C 6.476562 -1.515625 6.53125 -1.394531 6.53125 -1.25 C 6.53125 -1.070312 6.445312 -0.910156 6.28125 -0.765625 C 6.03125 -0.515625 5.695312 -0.300781 5.28125 -0.125 C 4.863281 0.0390625 4.441406 0.125 4.015625 0.125 C 3.316406 0.125 2.703125 -0.0195312 2.171875 -0.3125 C 1.640625 -0.601562 1.226562 -1.007812 0.9375 -1.53125 C 0.644531 -2.0625 0.5 -2.660156 0.5 -3.328125 C 0.5 -4.046875 0.644531 -4.679688 0.9375 -5.234375 C 1.238281 -5.785156 1.632812 -6.207031 2.125 -6.5 C 2.613281 -6.789062 3.140625 -6.9375 3.703125 -6.9375 C 4.253906 -6.9375 4.769531 -6.789062 5.25 -6.5 C 5.738281 -6.21875 6.128906 -5.828125 6.421875 -5.328125 C 6.710938 -4.828125 6.863281 -4.265625 6.875 -3.640625 Z M 3.703125 -5.796875 C 3.210938 -5.796875 2.789062 -5.660156 2.4375 -5.390625 C 2.09375 -5.117188 1.863281 -4.695312 1.75 -4.125 L 5.5625 -4.125 L 5.5625 -4.234375 C 5.519531 -4.691406 5.316406 -5.066406 4.953125 -5.359375 C 4.585938 -5.648438 4.171875 -5.796875 3.703125 -5.796875 Z M 3.703125 -5.796875 "/></g></g></g><g fill="#000000" fill-opacity="1"><g transform="translate(166.82814, 170.4547)"><g><path d="M 4.375 -6.9375 C 5.925781 -6.9375 6.703125 -6.003906 6.703125 -4.140625 L 6.703125 -0.625 C 6.703125 -0.445312 6.644531 -0.296875 6.53125 -0.171875 C 6.414062 -0.0546875 6.265625 0 6.078125 0 C 5.910156 0 5.765625 -0.0546875 5.640625 -0.171875 C 5.523438 -0.296875 5.46875 -0.445312 5.46875 -0.625 L 5.46875 -4.125 C 5.46875 -4.632812 5.351562 -5.039062 5.125 -5.34375 C 4.894531 -5.644531 4.515625 -5.796875 3.984375 -5.796875 C 3.640625 -5.796875 3.328125 -5.71875 3.046875 -5.5625 C 2.765625 -5.414062 2.539062 -5.210938 2.375 -4.953125 C 2.21875 -4.703125 2.140625 -4.425781 2.140625 -4.125 L 2.140625 -0.625 C 2.140625 -0.445312 2.082031 -0.296875 1.96875 -0.171875 C 1.851562 -0.0546875 1.707031 0 1.53125 0 C 1.34375 0 1.191406 -0.0546875 1.078125 -0.171875 C 0.972656 -0.285156 0.921875 -0.4375 0.921875 -0.625 L 0.921875 -6.15625 C 0.921875 -6.332031 0.976562 -6.476562 1.09375 -6.59375 C 1.207031 -6.71875 1.351562 -6.78125 1.53125 -6.78125 C 1.707031 -6.78125 1.851562 -6.71875 1.96875 -6.59375 C 2.082031 -6.476562 2.140625 -6.332031 2.140625 -6.15625 L 2.140625 -5.703125 C 2.367188 -6.046875 2.679688 -6.335938 3.078125 -6.578125 C 3.484375 -6.816406 3.914062 -6.9375 4.375 -6.9375 Z M 4.375 -6.9375 "/></g></g></g><g fill="#000000" fill-opacity="1"><g transform="translate(175.211439, 170.4547)"><g><path d="M 2.75 -5.578125 L 2.75 -1.71875 C 2.75 -1.289062 2.945312 -1.078125 3.34375 -1.078125 C 3.394531 -1.078125 3.472656 -1.09375 3.578125 -1.125 C 3.679688 -1.15625 3.765625 -1.171875 3.828125 -1.171875 C 3.941406 -1.171875 4.035156 -1.117188 4.109375 -1.015625 C 4.191406 -0.921875 4.234375 -0.800781 4.234375 -0.65625 C 4.234375 -0.476562 4.128906 -0.320312 3.921875 -0.1875 C 3.710938 -0.0625 3.476562 0 3.21875 0 C 2.9375 0 2.675781 -0.03125 2.4375 -0.09375 C 2.195312 -0.15625 1.984375 -0.304688 1.796875 -0.546875 C 1.617188 -0.796875 1.53125 -1.171875 1.53125 -1.671875 L 1.53125 -5.578125 L 0.78125 -5.578125 C 0.613281 -5.578125 0.472656 -5.628906 0.359375 -5.734375 C 0.253906 -5.847656 0.203125 -5.984375 0.203125 -6.140625 C 0.203125 -6.304688 0.253906 -6.441406 0.359375 -6.546875 C 0.472656 -6.648438 0.613281 -6.703125 0.78125 -6.703125 L 1.53125 -6.703125 L 1.53125 -7.78125 C 1.53125 -7.957031 1.585938 -8.101562 1.703125 -8.21875 C 1.816406 -8.34375 1.960938 -8.40625 2.140625 -8.40625 C 2.316406 -8.40625 2.460938 -8.34375 2.578125 -8.21875 C 2.691406 -8.101562 2.75 -7.957031 2.75 -7.78125 L 2.75 -6.703125 L 3.828125 -6.703125 C 3.992188 -6.703125 4.128906 -6.644531 4.234375 -6.53125 C 4.347656 -6.425781 4.40625 -6.289062 4.40625 -6.125 C 4.40625 -5.96875 4.347656 -5.835938 4.234375 -5.734375 C 4.128906 -5.628906 3.992188 -5.578125 3.828125 -5.578125 Z M 2.75 -5.578125 "/></g></g></g><g fill="#000000" fill-opacity="1"><g transform="translate(180.895335, 170.4547)"><g><path d="M 6.875 -3.640625 C 6.863281 -3.492188 6.796875 -3.363281 6.671875 -3.25 C 6.554688 -3.144531 6.414062 -3.09375 6.25 -3.09375 L 1.6875 -3.09375 C 1.75 -2.457031 1.988281 -1.953125 2.40625 -1.578125 C 2.832031 -1.203125 3.347656 -1.015625 3.953125 -1.015625 C 4.359375 -1.015625 4.691406 -1.070312 4.953125 -1.1875 C 5.210938 -1.3125 5.441406 -1.46875 5.640625 -1.65625 C 5.765625 -1.726562 5.890625 -1.765625 6.015625 -1.765625 C 6.160156 -1.765625 6.28125 -1.710938 6.375 -1.609375 C 6.476562 -1.515625 6.53125 -1.394531 6.53125 -1.25 C 6.53125 -1.070312 6.445312 -0.910156 6.28125 -0.765625 C 6.03125 -0.515625 5.695312 -0.300781 5.28125 -0.125 C 4.863281 0.0390625 4.441406 0.125 4.015625 0.125 C 3.316406 0.125 2.703125 -0.0195312 2.171875 -0.3125 C 1.640625 -0.601562 1.226562 -1.007812 0.9375 -1.53125 C 0.644531 -2.0625 0.5 -2.660156 0.5 -3.328125 C 0.5 -4.046875 0.644531 -4.679688 0.9375 -5.234375 C 1.238281 -5.785156 1.632812 -6.207031 2.125 -6.5 C 2.613281 -6.789062 3.140625 -6.9375 3.703125 -6.9375 C 4.253906 -6.9375 4.769531 -6.789062 5.25 -6.5 C 5.738281 -6.21875 6.128906 -5.828125 6.421875 -5.328125 C 6.710938 -4.828125 6.863281 -4.265625 6.875 -3.640625 Z M 3.703125 -5.796875 C 3.210938 -5.796875 2.789062 -5.660156 2.4375 -5.390625 C 2.09375 -5.117188 1.863281 -4.695312 1.75 -4.125 L 5.5625 -4.125 L 5.5625 -4.234375 C 5.519531 -4.691406 5.316406 -5.066406 4.953125 -5.359375 C 4.585938 -5.648438 4.171875 -5.796875 3.703125 -5.796875 Z M 3.703125 -5.796875 "/></g></g></g><g fill="#000000" fill-opacity="1"><g transform="translate(189.033225, 170.4547)"><g><path d="M 4.296875 -6.9375 C 4.515625 -6.9375 4.707031 -6.875 4.875 -6.75 C 5.039062 -6.632812 5.125 -6.492188 5.125 -6.328125 C 5.125 -6.117188 5.066406 -5.957031 4.953125 -5.84375 C 4.847656 -5.738281 4.71875 -5.6875 4.5625 -5.6875 C 4.488281 -5.6875 4.375 -5.710938 4.21875 -5.765625 C 4.039062 -5.828125 3.898438 -5.859375 3.796875 -5.859375 C 3.523438 -5.859375 3.257812 -5.765625 3 -5.578125 C 2.75 -5.390625 2.539062 -5.132812 2.375 -4.8125 C 2.21875 -4.488281 2.140625 -4.128906 2.140625 -3.734375 L 2.140625 -0.625 C 2.140625 -0.445312 2.082031 -0.296875 1.96875 -0.171875 C 1.851562 -0.0546875 1.707031 0 1.53125 0 C 1.34375 0 1.191406 -0.0546875 1.078125 -0.171875 C 0.972656 -0.285156 0.921875 -0.4375 0.921875 -0.625 L 0.921875 -6.15625 C 0.921875 -6.332031 0.976562 -6.476562 1.09375 -6.59375 C 1.207031 -6.71875 1.351562 -6.78125 1.53125 -6.78125 C 1.707031 -6.78125 1.851562 -6.71875 1.96875 -6.59375 C 2.082031 -6.476562 2.140625 -6.332031 2.140625 -6.15625 L 2.140625 -5.5 C 2.335938 -5.914062 2.625 -6.253906 3 -6.515625 C 3.382812 -6.785156 3.816406 -6.925781 4.296875 -6.9375 Z M 4.296875 -6.9375 "/></g></g></g><g fill="#000000" fill-opacity="1"><g transform="translate(195.143337, 170.4547)"><g><path d="M 2.75 -5.578125 L 2.75 -1.71875 C 2.75 -1.289062 2.945312 -1.078125 3.34375 -1.078125 C 3.394531 -1.078125 3.472656 -1.09375 3.578125 -1.125 C 3.679688 -1.15625 3.765625 -1.171875 3.828125 -1.171875 C 3.941406 -1.171875 4.035156 -1.117188 4.109375 -1.015625 C 4.191406 -0.921875 4.234375 -0.800781 4.234375 -0.65625 C 4.234375 -0.476562 4.128906 -0.320312 3.921875 -0.1875 C 3.710938 -0.0625 3.476562 0 3.21875 0 C 2.9375 0 2.675781 -0.03125 2.4375 -0.09375 C 2.195312 -0.15625 1.984375 -0.304688 1.796875 -0.546875 C 1.617188 -0.796875 1.53125 -1.171875 1.53125 -1.671875 L 1.53125 -5.578125 L 0.78125 -5.578125 C 0.613281 -5.578125 0.472656 -5.628906 0.359375 -5.734375 C 0.253906 -5.847656 0.203125 -5.984375 0.203125 -6.140625 C 0.203125 -6.304688 0.253906 -6.441406 0.359375 -6.546875 C 0.472656 -6.648438 0.613281 -6.703125 0.78125 -6.703125 L 1.53125 -6.703125 L 1.53125 -7.78125 C 1.53125 -7.957031 1.585938 -8.101562 1.703125 -8.21875 C 1.816406 -8.34375 1.960938 -8.40625 2.140625 -8.40625 C 2.316406 -8.40625 2.460938 -8.34375 2.578125 -8.21875 C 2.691406 -8.101562 2.75 -7.957031 2.75 -7.78125 L 2.75 -6.703125 L 3.828125 -6.703125 C 3.992188 -6.703125 4.128906 -6.644531 4.234375 -6.53125 C 4.347656 -6.425781 4.40625 -6.289062 4.40625 -6.125 C 4.40625 -5.96875 4.347656 -5.835938 4.234375 -5.734375 C 4.128906 -5.628906 3.992188 -5.578125 3.828125 -5.578125 Z M 2.75 -5.578125 "/></g></g></g><g fill="#000000" fill-opacity="1"><g transform="translate(200.827233, 170.4547)"><g><path d="M 6.421875 -6.875 C 6.597656 -6.875 6.742188 -6.8125 6.859375 -6.6875 C 6.972656 -6.570312 7.03125 -6.421875 7.03125 -6.234375 L 7.03125 -0.625 C 7.03125 -0.445312 6.972656 -0.296875 6.859375 -0.171875 C 6.742188 -0.0546875 6.597656 0 6.421875 0 C 6.234375 0 6.082031 -0.0546875 5.96875 -0.171875 C 5.863281 -0.285156 5.8125 -0.4375 5.8125 -0.625 L 5.8125 -0.953125 C 5.582031 -0.648438 5.273438 -0.394531 4.890625 -0.1875 C 4.503906 0.0195312 4.085938 0.125 3.640625 0.125 C 3.046875 0.125 2.507812 -0.0234375 2.03125 -0.328125 C 1.550781 -0.628906 1.175781 -1.046875 0.90625 -1.578125 C 0.632812 -2.117188 0.5 -2.726562 0.5 -3.40625 C 0.5 -4.070312 0.632812 -4.675781 0.90625 -5.21875 C 1.175781 -5.757812 1.550781 -6.179688 2.03125 -6.484375 C 2.507812 -6.785156 3.03125 -6.9375 3.59375 -6.9375 C 4.050781 -6.9375 4.472656 -6.835938 4.859375 -6.640625 C 5.253906 -6.453125 5.570312 -6.210938 5.8125 -5.921875 L 5.8125 -6.234375 C 5.8125 -6.410156 5.863281 -6.5625 5.96875 -6.6875 C 6.082031 -6.8125 6.234375 -6.875 6.421875 -6.875 Z M 3.78125 -1.015625 C 4.1875 -1.015625 4.546875 -1.113281 4.859375 -1.3125 C 5.171875 -1.519531 5.414062 -1.804688 5.59375 -2.171875 C 5.769531 -2.535156 5.859375 -2.945312 5.859375 -3.40625 C 5.859375 -3.851562 5.769531 -4.253906 5.59375 -4.609375 C 5.414062 -4.972656 5.171875 -5.257812 4.859375 -5.46875 C 4.546875 -5.6875 4.1875 -5.796875 3.78125 -5.796875 C 3.375 -5.796875 3.007812 -5.691406 2.6875 -5.484375 C 2.375 -5.273438 2.128906 -4.988281 1.953125 -4.625 C 1.773438 -4.269531 1.6875 -3.863281 1.6875 -3.40625 C 1.6875 -2.945312 1.773438 -2.535156 1.953125 -2.171875 C 2.128906 -1.804688 2.375 -1.519531 2.6875 -1.3125 C 3.007812 -1.113281 3.375 -1.015625 3.78125 -1.015625 Z M 3.78125 -1.015625 "/></g></g></g><g fill="#000000" fill-opacity="1"><g transform="translate(209.533425, 170.4547)"><g><path d="M 2.078125 -0.625 C 2.078125 -0.445312 2.019531 -0.296875 1.90625 -0.171875 C 1.789062 -0.0546875 1.644531 0 1.46875 0 C 1.289062 0 1.144531 -0.0546875 1.03125 -0.171875 C 0.914062 -0.296875 0.859375 -0.445312 0.859375 -0.625 L 0.859375 -6.21875 C 0.859375 -6.394531 0.914062 -6.539062 1.03125 -6.65625 C 1.144531 -6.78125 1.289062 -6.84375 1.46875 -6.84375 C 1.644531 -6.84375 1.789062 -6.78125 1.90625 -6.65625 C 2.019531 -6.539062 2.078125 -6.394531 2.078125 -6.21875 Z M 1.46875 -7.703125 C 1.21875 -7.703125 1.035156 -7.742188 0.921875 -7.828125 C 0.816406 -7.921875 0.765625 -8.066406 0.765625 -8.265625 L 0.765625 -8.46875 C 0.765625 -8.675781 0.820312 -8.820312 0.9375 -8.90625 C 1.0625 -9 1.242188 -9.046875 1.484375 -9.046875 C 1.722656 -9.046875 1.894531 -9 2 -8.90625 C 2.113281 -8.8125 2.171875 -8.664062 2.171875 -8.46875 L 2.171875 -8.265625 C 2.171875 -8.054688 2.113281 -7.910156 2 -7.828125 C 1.882812 -7.742188 1.707031 -7.703125 1.46875 -7.703125 Z M 1.46875 -7.703125 "/></g></g></g><g fill="#000000" fill-opacity="1"><g transform="translate(213.2412, 170.4547)"><g><path d="M 4.375 -6.9375 C 5.925781 -6.9375 6.703125 -6.003906 6.703125 -4.140625 L 6.703125 -0.625 C 6.703125 -0.445312 6.644531 -0.296875 6.53125 -0.171875 C 6.414062 -0.0546875 6.265625 0 6.078125 0 C 5.910156 0 5.765625 -0.0546875 5.640625 -0.171875 C 5.523438 -0.296875 5.46875 -0.445312 5.46875 -0.625 L 5.46875 -4.125 C 5.46875 -4.632812 5.351562 -5.039062 5.125 -5.34375 C 4.894531 -5.644531 4.515625 -5.796875 3.984375 -5.796875 C 3.640625 -5.796875 3.328125 -5.71875 3.046875 -5.5625 C 2.765625 -5.414062 2.539062 -5.210938 2.375 -4.953125 C 2.21875 -4.703125 2.140625 -4.425781 2.140625 -4.125 L 2.140625 -0.625 C 2.140625 -0.445312 2.082031 -0.296875 1.96875 -0.171875 C 1.851562 -0.0546875 1.707031 0 1.53125 0 C 1.34375 0 1.191406 -0.0546875 1.078125 -0.171875 C 0.972656 -0.285156 0.921875 -0.4375 0.921875 -0.625 L 0.921875 -6.15625 C 0.921875 -6.332031 0.976562 -6.476562 1.09375 -6.59375 C 1.207031 -6.71875 1.351562 -6.78125 1.53125 -6.78125 C 1.707031 -6.78125 1.851562 -6.71875 1.96875 -6.59375 C 2.082031 -6.476562 2.140625 -6.332031 2.140625 -6.15625 L 2.140625 -5.703125 C 2.367188 -6.046875 2.679688 -6.335938 3.078125 -6.578125 C 3.484375 -6.816406 3.914062 -6.9375 4.375 -6.9375 Z M 4.375 -6.9375 "/></g></g></g><g fill="#000000" fill-opacity="1"><g transform="translate(221.624505, 170.4547)"><g><path d="M 8.6875 -6.890625 C 10.195312 -6.890625 10.953125 -5.953125 10.953125 -4.078125 L 10.953125 -0.625 C 10.953125 -0.4375 10.894531 -0.285156 10.78125 -0.171875 C 10.675781 -0.0546875 10.53125 0 10.34375 0 C 10.164062 0 10.019531 -0.0546875 9.90625 -0.171875 C 9.789062 -0.296875 9.734375 -0.445312 9.734375 -0.625 L 9.734375 -4.0625 C 9.734375 -5.1875 9.257812 -5.75 8.3125 -5.75 C 7.96875 -5.75 7.660156 -5.671875 7.390625 -5.515625 C 7.117188 -5.367188 6.90625 -5.164062 6.75 -4.90625 C 6.601562 -4.65625 6.53125 -4.375 6.53125 -4.0625 L 6.53125 -0.625 C 6.53125 -0.445312 6.472656 -0.296875 6.359375 -0.171875 C 6.242188 -0.0546875 6.09375 0 5.90625 0 C 5.726562 0 5.582031 -0.0546875 5.46875 -0.171875 C 5.351562 -0.285156 5.296875 -0.4375 5.296875 -0.625 L 5.296875 -4.078125 C 5.296875 -4.585938 5.1875 -4.992188 4.96875 -5.296875 C 4.757812 -5.597656 4.40625 -5.75 3.90625 -5.75 C 3.394531 -5.75 2.972656 -5.585938 2.640625 -5.265625 C 2.304688 -4.941406 2.140625 -4.546875 2.140625 -4.078125 L 2.140625 -0.625 C 2.140625 -0.445312 2.082031 -0.296875 1.96875 -0.171875 C 1.851562 -0.0546875 1.707031 0 1.53125 0 C 1.34375 0 1.191406 -0.0546875 1.078125 -0.171875 C 0.972656 -0.285156 0.921875 -0.4375 0.921875 -0.625 L 0.921875 -6.15625 C 0.921875 -6.332031 0.976562 -6.476562 1.09375 -6.59375 C 1.207031 -6.71875 1.351562 -6.78125 1.53125 -6.78125 C 1.707031 -6.78125 1.851562 -6.71875 1.96875 -6.59375 C 2.082031 -6.476562 2.140625 -6.332031 2.140625 -6.15625 L 2.140625 -5.703125 C 2.367188 -6.035156 2.671875 -6.316406 3.046875 -6.546875 C 3.421875 -6.773438 3.828125 -6.890625 4.265625 -6.890625 C 5.335938 -6.890625 6.035156 -6.414062 6.359375 -5.46875 C 6.546875 -5.832031 6.859375 -6.160156 7.296875 -6.453125 C 7.734375 -6.742188 8.195312 -6.890625 8.6875 -6.890625 Z M 8.6875 -6.890625 "/></g></g></g><g fill="#000000" fill-opacity="1"><g transform="translate(234.257112, 170.4547)"><g><path d="M 6.875 -3.640625 C 6.863281 -3.492188 6.796875 -3.363281 6.671875 -3.25 C 6.554688 -3.144531 6.414062 -3.09375 6.25 -3.09375 L 1.6875 -3.09375 C 1.75 -2.457031 1.988281 -1.953125 2.40625 -1.578125 C 2.832031 -1.203125 3.347656 -1.015625 3.953125 -1.015625 C 4.359375 -1.015625 4.691406 -1.070312 4.953125 -1.1875 C 5.210938 -1.3125 5.441406 -1.46875 5.640625 -1.65625 C 5.765625 -1.726562 5.890625 -1.765625 6.015625 -1.765625 C 6.160156 -1.765625 6.28125 -1.710938 6.375 -1.609375 C 6.476562 -1.515625 6.53125 -1.394531 6.53125 -1.25 C 6.53125 -1.070312 6.445312 -0.910156 6.28125 -0.765625 C 6.03125 -0.515625 5.695312 -0.300781 5.28125 -0.125 C 4.863281 0.0390625 4.441406 0.125 4.015625 0.125 C 3.316406 0.125 2.703125 -0.0195312 2.171875 -0.3125 C 1.640625 -0.601562 1.226562 -1.007812 0.9375 -1.53125 C 0.644531 -2.0625 0.5 -2.660156 0.5 -3.328125 C 0.5 -4.046875 0.644531 -4.679688 0.9375 -5.234375 C 1.238281 -5.785156 1.632812 -6.207031 2.125 -6.5 C 2.613281 -6.789062 3.140625 -6.9375 3.703125 -6.9375 C 4.253906 -6.9375 4.769531 -6.789062 5.25 -6.5 C 5.738281 -6.21875 6.128906 -5.828125 6.421875 -5.328125 C 6.710938 -4.828125 6.863281 -4.265625 6.875 -3.640625 Z M 3.703125 -5.796875 C 3.210938 -5.796875 2.789062 -5.660156 2.4375 -5.390625 C 2.09375 -5.117188 1.863281 -4.695312 1.75 -4.125 L 5.5625 -4.125 L 5.5625 -4.234375 C 5.519531 -4.691406 5.316406 -5.066406 4.953125 -5.359375 C 4.585938 -5.648438 4.171875 -5.796875 3.703125 -5.796875 Z M 3.703125 -5.796875 "/></g></g></g><g fill="#000000" fill-opacity="1"><g transform="translate(242.395007, 170.4547)"><g><path d="M 4.375 -6.9375 C 5.925781 -6.9375 6.703125 -6.003906 6.703125 -4.140625 L 6.703125 -0.625 C 6.703125 -0.445312 6.644531 -0.296875 6.53125 -0.171875 C 6.414062 -0.0546875 6.265625 0 6.078125 0 C 5.910156 0 5.765625 -0.0546875 5.640625 -0.171875 C 5.523438 -0.296875 5.46875 -0.445312 5.46875 -0.625 L 5.46875 -4.125 C 5.46875 -4.632812 5.351562 -5.039062 5.125 -5.34375 C 4.894531 -5.644531 4.515625 -5.796875 3.984375 -5.796875 C 3.640625 -5.796875 3.328125 -5.71875 3.046875 -5.5625 C 2.765625 -5.414062 2.539062 -5.210938 2.375 -4.953125 C 2.21875 -4.703125 2.140625 -4.425781 2.140625 -4.125 L 2.140625 -0.625 C 2.140625 -0.445312 2.082031 -0.296875 1.96875 -0.171875 C 1.851562 -0.0546875 1.707031 0 1.53125 0 C 1.34375 0 1.191406 -0.0546875 1.078125 -0.171875 C 0.972656 -0.285156 0.921875 -0.4375 0.921875 -0.625 L 0.921875 -6.15625 C 0.921875 -6.332031 0.976562 -6.476562 1.09375 -6.59375 C 1.207031 -6.71875 1.351562 -6.78125 1.53125 -6.78125 C 1.707031 -6.78125 1.851562 -6.71875 1.96875 -6.59375 C 2.082031 -6.476562 2.140625 -6.332031 2.140625 -6.15625 L 2.140625 -5.703125 C 2.367188 -6.046875 2.679688 -6.335938 3.078125 -6.578125 C 3.484375 -6.816406 3.914062 -6.9375 4.375 -6.9375 Z M 4.375 -6.9375 "/></g></g></g><g fill="#000000" fill-opacity="1"><g transform="translate(250.778311, 170.4547)"><g><path d="M 2.75 -5.578125 L 2.75 -1.71875 C 2.75 -1.289062 2.945312 -1.078125 3.34375 -1.078125 C 3.394531 -1.078125 3.472656 -1.09375 3.578125 -1.125 C 3.679688 -1.15625 3.765625 -1.171875 3.828125 -1.171875 C 3.941406 -1.171875 4.035156 -1.117188 4.109375 -1.015625 C 4.191406 -0.921875 4.234375 -0.800781 4.234375 -0.65625 C 4.234375 -0.476562 4.128906 -0.320312 3.921875 -0.1875 C 3.710938 -0.0625 3.476562 0 3.21875 0 C 2.9375 0 2.675781 -0.03125 2.4375 -0.09375 C 2.195312 -0.15625 1.984375 -0.304688 1.796875 -0.546875 C 1.617188 -0.796875 1.53125 -1.171875 1.53125 -1.671875 L 1.53125 -5.578125 L 0.78125 -5.578125 C 0.613281 -5.578125 0.472656 -5.628906 0.359375 -5.734375 C 0.253906 -5.847656 0.203125 -5.984375 0.203125 -6.140625 C 0.203125 -6.304688 0.253906 -6.441406 0.359375 -6.546875 C 0.472656 -6.648438 0.613281 -6.703125 0.78125 -6.703125 L 1.53125 -6.703125 L 1.53125 -7.78125 C 1.53125 -7.957031 1.585938 -8.101562 1.703125 -8.21875 C 1.816406 -8.34375 1.960938 -8.40625 2.140625 -8.40625 C 2.316406 -8.40625 2.460938 -8.34375 2.578125 -8.21875 C 2.691406 -8.101562 2.75 -7.957031 2.75 -7.78125 L 2.75 -6.703125 L 3.828125 -6.703125 C 3.992188 -6.703125 4.128906 -6.644531 4.234375 -6.53125 C 4.347656 -6.425781 4.40625 -6.289062 4.40625 -6.125 C 4.40625 -5.96875 4.347656 -5.835938 4.234375 -5.734375 C 4.128906 -5.628906 3.992188 -5.578125 3.828125 -5.578125 Z M 2.75 -5.578125 "/></g></g></g><g fill="#000000" fill-opacity="1"><g transform="translate(256.472487, 170.4547)"><g/></g></g></svg>